<svg version="1.0" xmlns="http://www.w3.org/2000/svg"
 width="1324.000000pt" height="1531.000000pt" viewBox="0 0 1324.000000 1531.000000"
 preserveAspectRatio="xMidYMid meet">
<g transform="translate(0.000000,1531.000000) scale(0.100000,-0.100000)"
fill="#000000" stroke="none">
<path d="M6200 12150 c-604 -47 -1173 -201 -1685 -458 -366 -183 -728 -432 -1037 -716 -408 -373 -767 -845 -1007 -1325 -261 -520 -402 -1013 -463 -1621 -19 -182 -15 -667 6 -862 89 -836 385 -1581 898 -2261 308 -407 714 -786 1148 -1070 1142 -747 2550 -936 3845 -517 372 120 727 291 1060 508 1318 859 2085 2259 2085 3802 0 301 -23 540 -81 844 -45 237 -139 587 -157 586 -4 -1 -37 -38 -74 -83 -36 -45 -136 -165 -222 -267 -85 -102 -155 -192 -156 -200 0 -8 11 -71 25 -140 29 -152 51 -319 61 -462 l7 -108 -342 0 -341 0 0 -165 0 -165 338 -2 337 -3 -2 -100 c-6 -313 -102 -753 -249 -1137 -71 -186 -208 -478 -225 -478 -5 0 -96 51 -202 113 -292 173 -333 193 -348 180 -18 -15 -85 -140 -79 -146 3 -2 123 -73 268 -157 144 -84 262 -156 262 -160 0 -5 -32 -57 -71 -117 -271 -410 -665 -805 -1099 -1102 -65 -45 -123 -81 -129 -81 -5 0 -36 46 -67 103 -68 122 -244 431 -249 435 -4 4 -155 -88 -155 -95 0 -2 68 -126 151 -274 83 -149 150 -271 148 -273 -46 -35 -340 -169 -524 -239 -343 -130 -857 -237 -1135 -237 l-60 0 0 340 0 340 -159 0 c-156 0 -159 0 -165 -22 -3 -13 -6 -167 -6 -342 l0 -319 -115 7 c-464 28 -1046 191 -1478 414 -86 44 -107 59 -104 74 3 9 71 133 152 274 81 140 144 258 141 262 -4 3 -39 25 -79 49 -58 34 -74 40 -82 29 -5 -7 -75 -128 -155 -269 -80 -141 -150 -256 -157 -257 -18 0 -236 150 -365 252 -224 177 -394 341 -601 581 -108 124 -337 441 -337 465 0 5 46 35 103 67 202 113 437 256 433 263 -15 27 -89 148 -91 150 -2 2 -25 -10 -51 -26 -27 -17 -148 -87 -269 -156 -205 -118 -221 -126 -234 -109 -31 41 -175 349 -225 484 -92 249 -174 565 -210 809 -21 145 -41 389 -32 398 4 4 158 8 342 10 l334 3 0 164 0 165 -340 0 -340 0 0 23 c0 13 7 93 15 178 37 385 121 733 262 1089 61 153 164 372 195 413 12 17 32 7 273 -138 143 -85 265 -155 271 -155 11 0 94 130 94 147 0 10 10 4 -285 181 -132 80 -242 146 -244 148 -2 1 32 54 74 116 238 347 535 671 835 911 156 125 381 280 391 270 4 -5 75 -127 158 -273 84 -145 153 -266 155 -268 6 -6 156 89 156 99 0 6 -68 128 -150 271 -83 144 -149 267 -146 275 7 16 275 148 414 203 384 151 744 232 1224 275 l68 6 2 -343 3 -343 162 -3 163 -2 2 342 3 343 75 -3 c290 -12 690 -88 990 -188 281 -94 667 -271 655 -302 -3 -8 -52 -94 -109 -191 -171 -290 -199 -341 -194 -347 3 -3 38 -25 78 -50 65 -40 74 -43 85 -28 6 9 69 116 140 238 71 121 137 236 147 254 11 17 23 32 28 32 22 0 248 -158 401 -282 228 -183 528 -498 703 -736 21 -29 42 -52 47 -50 6 2 261 300 378 441 16 20 9 29 -185 252 -543 625 -1243 1091 -2009 1338 -269 87 -642 163 -960 197 -135 15 -613 21 -755 10z"/>
<path d="M10652 10613 c-82 -98 -203 -241 -268 -319 -141 -166 -571 -676 -844 -999 -172 -204 -435 -516 -845 -1004 -72 -85 -240 -285 -375 -445 -135 -160 -306 -363 -380 -452 -269 -320 -332 -394 -339 -394 -3 0 -89 97 -190 215 -101 119 -186 213 -189 210 -3 -3 -17 -36 -32 -73 -91 -234 -314 -409 -566 -445 l-85 -13 93 -109 c51 -61 225 -266 388 -456 162 -190 358 -420 435 -512 77 -91 145 -166 152 -166 6 -1 18 7 25 18 12 17 291 349 723 861 105 124 442 524 750 890 307 366 632 751 720 855 89 105 219 260 291 345 116 139 279 333 884 1055 255 303 404 481 692 822 l248 293 -569 0 -569 0 -150 -177z"/>
<path d="M6464 10452 l-51 -87 -7 -165 c-4 -91 -22 -525 -41 -965 -19 -440 -37 -876 -41 -968 l-7 -168 -28 -15 c-29 -14 -32 -13 -236 112 -347 212 -1095 673 -1151 710 -47 31 -63 36 -163 45 -60 6 -113 9 -116 5 -3 -3 11 -51 32 -107 l38 -101 101 -76 c56 -41 356 -271 669 -511 l567 -435 0 -85 c0 -148 37 -245 131 -346 97 -103 217 -155 359 -155 93 1 148 13 221 49 152 76 244 206 269 379 9 62 1 173 -16 215 -4 12 97 122 362 394 203 208 512 527 688 708 176 182 431 443 567 580 l246 250 27 90 c15 50 30 98 32 108 7 22 -4 22 -119 -3 -85 -19 -96 -25 -142 -69 -27 -26 -156 -142 -285 -257 -129 -115 -332 -297 -451 -404 -608 -551 -1173 -1055 -1183 -1058 -9 -2 -15 72 -24 285 -7 158 -19 439 -27 623 -8 184 -21 490 -29 680 -9 190 -18 413 -22 495 l-6 150 -51 92 c-29 51 -54 93 -57 93 -3 0 -28 -40 -56 -88z m154 -2631 c73 -37 112 -104 112 -190 0 -63 -13 -97 -53 -140 -133 -141 -367 -52 -367 139 0 165 162 266 308 191z"/>
</g>
</svg>
